<?xml version="1.0" encoding="utf-8" standalone="no"?>
<!DOCTYPE svg PUBLIC "-//W3C//DTD SVG 1.1//EN"
  "http://www.w3.org/Graphics/SVG/1.1/DTD/svg11.dtd">
<svg xmlns:xlink="http://www.w3.org/1999/xlink" width="482.03pt" height="360pt" viewBox="0 0 482.03 360" xmlns="http://www.w3.org/2000/svg" version="1.1">
 <metadata>
  <rdf:RDF xmlns:dc="http://purl.org/dc/elements/1.1/" xmlns:cc="http://creativecommons.org/ns#" xmlns:rdf="http://www.w3.org/1999/02/22-rdf-syntax-ns#">
   <cc:Work>
    <dc:type rdf:resource="http://purl.org/dc/dcmitype/StillImage"/>
    <dc:date>2024-12-23T11:32:29.725882</dc:date>
    <dc:format>image/svg+xml</dc:format>
    <dc:creator>
     <cc:Agent>
      <dc:title>Matplotlib v3.9.2, https://matplotlib.org/</dc:title>
     </cc:Agent>
    </dc:creator>
   </cc:Work>
  </rdf:RDF>
 </metadata>
 <defs>
  <style type="text/css">*{stroke-linejoin: round; stroke-linecap: butt}</style>
 </defs>
 <g id="figure_1">
  <g id="patch_1">
   <path d="M 0 360 
L 482.03 360 
L 482.03 0 
L 0 0 
z
" style="fill: #ffffff"/>
  </g>
  <g id="axes_1">
   <g id="patch_2">
    <path d="M 63.895754 317.8375 
L 355.1797 317.8375 
L 355.1797 10.8 
L 63.895754 10.8 
z
" style="fill: #eaeaf2"/>
   </g>
   <g id="matplotlib.axis_1">
    <g id="xtick_1">
     <g id="text_1">
      <!-- big_l1i -->
      <g style="fill: #262626" transform="translate(68.504876 332.435938) scale(0.1 -0.1)">
       <defs>
        <path id="DejaVuSans-62" d="M 3116 1747 
Q 3116 2381 2855 2742 
Q 2594 3103 2138 3103 
Q 1681 3103 1420 2742 
Q 1159 2381 1159 1747 
Q 1159 1113 1420 752 
Q 1681 391 2138 391 
Q 2594 391 2855 752 
Q 3116 1113 3116 1747 
z
M 1159 2969 
Q 1341 3281 1617 3432 
Q 1894 3584 2278 3584 
Q 2916 3584 3314 3078 
Q 3713 2572 3713 1747 
Q 3713 922 3314 415 
Q 2916 -91 2278 -91 
Q 1894 -91 1617 61 
Q 1341 213 1159 525 
L 1159 0 
L 581 0 
L 581 4863 
L 1159 4863 
L 1159 2969 
z
" transform="scale(0.015625)"/>
        <path id="DejaVuSans-69" d="M 603 3500 
L 1178 3500 
L 1178 0 
L 603 0 
L 603 3500 
z
M 603 4863 
L 1178 4863 
L 1178 4134 
L 603 4134 
L 603 4863 
z
" transform="scale(0.015625)"/>
        <path id="DejaVuSans-67" d="M 2906 1791 
Q 2906 2416 2648 2759 
Q 2391 3103 1925 3103 
Q 1463 3103 1205 2759 
Q 947 2416 947 1791 
Q 947 1169 1205 825 
Q 1463 481 1925 481 
Q 2391 481 2648 825 
Q 2906 1169 2906 1791 
z
M 3481 434 
Q 3481 -459 3084 -895 
Q 2688 -1331 1869 -1331 
Q 1566 -1331 1297 -1286 
Q 1028 -1241 775 -1147 
L 775 -588 
Q 1028 -725 1275 -790 
Q 1522 -856 1778 -856 
Q 2344 -856 2625 -561 
Q 2906 -266 2906 331 
L 2906 616 
Q 2728 306 2450 153 
Q 2172 0 1784 0 
Q 1141 0 747 490 
Q 353 981 353 1791 
Q 353 2603 747 3093 
Q 1141 3584 1784 3584 
Q 2172 3584 2450 3431 
Q 2728 3278 2906 2969 
L 2906 3500 
L 3481 3500 
L 3481 434 
z
" transform="scale(0.015625)"/>
        <path id="DejaVuSans-5f" d="M 3263 -1063 
L 3263 -1509 
L -63 -1509 
L -63 -1063 
L 3263 -1063 
z
" transform="scale(0.015625)"/>
        <path id="DejaVuSans-6c" d="M 603 4863 
L 1178 4863 
L 1178 0 
L 603 0 
L 603 4863 
z
" transform="scale(0.015625)"/>
        <path id="DejaVuSans-31" d="M 794 531 
L 1825 531 
L 1825 4091 
L 703 3866 
L 703 4441 
L 1819 4666 
L 2450 4666 
L 2450 531 
L 3481 531 
L 3481 0 
L 794 0 
L 794 531 
z
" transform="scale(0.015625)"/>
       </defs>
       <use xlink:href="#DejaVuSans-62"/>
       <use xlink:href="#DejaVuSans-69" x="63.476562"/>
       <use xlink:href="#DejaVuSans-67" x="91.259766"/>
       <use xlink:href="#DejaVuSans-5f" x="154.736328"/>
       <use xlink:href="#DejaVuSans-6c" x="204.736328"/>
       <use xlink:href="#DejaVuSans-31" x="232.519531"/>
       <use xlink:href="#DejaVuSans-69" x="296.142578"/>
      </g>
     </g>
    </g>
    <g id="xtick_2">
     <g id="text_2">
      <!-- big_l1d -->
      <g style="fill: #262626" transform="translate(108.331712 332.435938) scale(0.1 -0.1)">
       <defs>
        <path id="DejaVuSans-64" d="M 2906 2969 
L 2906 4863 
L 3481 4863 
L 3481 0 
L 2906 0 
L 2906 525 
Q 2725 213 2448 61 
Q 2172 -91 1784 -91 
Q 1150 -91 751 415 
Q 353 922 353 1747 
Q 353 2572 751 3078 
Q 1150 3584 1784 3584 
Q 2172 3584 2448 3432 
Q 2725 3281 2906 2969 
z
M 947 1747 
Q 947 1113 1208 752 
Q 1469 391 1925 391 
Q 2381 391 2643 752 
Q 2906 1113 2906 1747 
Q 2906 2381 2643 2742 
Q 2381 3103 1925 3103 
Q 1469 3103 1208 2742 
Q 947 2381 947 1747 
z
" transform="scale(0.015625)"/>
       </defs>
       <use xlink:href="#DejaVuSans-62"/>
       <use xlink:href="#DejaVuSans-69" x="63.476562"/>
       <use xlink:href="#DejaVuSans-67" x="91.259766"/>
       <use xlink:href="#DejaVuSans-5f" x="154.736328"/>
       <use xlink:href="#DejaVuSans-6c" x="204.736328"/>
       <use xlink:href="#DejaVuSans-31" x="232.519531"/>
       <use xlink:href="#DejaVuSans-64" x="296.142578"/>
      </g>
     </g>
    </g>
    <g id="xtick_3">
     <g id="text_3">
      <!-- big_l2 -->
      <g style="fill: #262626" transform="translate(153.117922 332.435938) scale(0.1 -0.1)">
       <defs>
        <path id="DejaVuSans-32" d="M 1228 531 
L 3431 531 
L 3431 0 
L 469 0 
L 469 531 
Q 828 903 1448 1529 
Q 2069 2156 2228 2338 
Q 2531 2678 2651 2914 
Q 2772 3150 2772 3378 
Q 2772 3750 2511 3984 
Q 2250 4219 1831 4219 
Q 1534 4219 1204 4116 
Q 875 4013 500 3803 
L 500 4441 
Q 881 4594 1212 4672 
Q 1544 4750 1819 4750 
Q 2544 4750 2975 4387 
Q 3406 4025 3406 3419 
Q 3406 3131 3298 2873 
Q 3191 2616 2906 2266 
Q 2828 2175 2409 1742 
Q 1991 1309 1228 531 
z
" transform="scale(0.015625)"/>
       </defs>
       <use xlink:href="#DejaVuSans-62"/>
       <use xlink:href="#DejaVuSans-69" x="63.476562"/>
       <use xlink:href="#DejaVuSans-67" x="91.259766"/>
       <use xlink:href="#DejaVuSans-5f" x="154.736328"/>
       <use xlink:href="#DejaVuSans-6c" x="204.736328"/>
       <use xlink:href="#DejaVuSans-32" x="232.519531"/>
      </g>
     </g>
    </g>
    <g id="xtick_4">
     <g id="text_4">
      <!-- little_l1i -->
      <g style="fill: #262626" transform="translate(189.91429 332.435938) scale(0.1 -0.1)">
       <defs>
        <path id="DejaVuSans-74" d="M 1172 4494 
L 1172 3500 
L 2356 3500 
L 2356 3053 
L 1172 3053 
L 1172 1153 
Q 1172 725 1289 603 
Q 1406 481 1766 481 
L 2356 481 
L 2356 0 
L 1766 0 
Q 1100 0 847 248 
Q 594 497 594 1153 
L 594 3053 
L 172 3053 
L 172 3500 
L 594 3500 
L 594 4494 
L 1172 4494 
z
" transform="scale(0.015625)"/>
        <path id="DejaVuSans-65" d="M 3597 1894 
L 3597 1613 
L 953 1613 
Q 991 1019 1311 708 
Q 1631 397 2203 397 
Q 2534 397 2845 478 
Q 3156 559 3463 722 
L 3463 178 
Q 3153 47 2828 -22 
Q 2503 -91 2169 -91 
Q 1331 -91 842 396 
Q 353 884 353 1716 
Q 353 2575 817 3079 
Q 1281 3584 2069 3584 
Q 2775 3584 3186 3129 
Q 3597 2675 3597 1894 
z
M 3022 2063 
Q 3016 2534 2758 2815 
Q 2500 3097 2075 3097 
Q 1594 3097 1305 2825 
Q 1016 2553 972 2059 
L 3022 2063 
z
" transform="scale(0.015625)"/>
       </defs>
       <use xlink:href="#DejaVuSans-6c"/>
       <use xlink:href="#DejaVuSans-69" x="27.783203"/>
       <use xlink:href="#DejaVuSans-74" x="55.566406"/>
       <use xlink:href="#DejaVuSans-74" x="94.775391"/>
       <use xlink:href="#DejaVuSans-6c" x="133.984375"/>
       <use xlink:href="#DejaVuSans-65" x="161.767578"/>
       <use xlink:href="#DejaVuSans-5f" x="223.291016"/>
       <use xlink:href="#DejaVuSans-6c" x="273.291016"/>
       <use xlink:href="#DejaVuSans-31" x="301.074219"/>
       <use xlink:href="#DejaVuSans-69" x="364.697266"/>
      </g>
     </g>
    </g>
    <g id="xtick_5">
     <g id="text_5">
      <!-- little_l1d -->
      <g style="fill: #262626" transform="translate(229.741126 332.435938) scale(0.1 -0.1)">
       <use xlink:href="#DejaVuSans-6c"/>
       <use xlink:href="#DejaVuSans-69" x="27.783203"/>
       <use xlink:href="#DejaVuSans-74" x="55.566406"/>
       <use xlink:href="#DejaVuSans-74" x="94.775391"/>
       <use xlink:href="#DejaVuSans-6c" x="133.984375"/>
       <use xlink:href="#DejaVuSans-65" x="161.767578"/>
       <use xlink:href="#DejaVuSans-5f" x="223.291016"/>
       <use xlink:href="#DejaVuSans-6c" x="273.291016"/>
       <use xlink:href="#DejaVuSans-31" x="301.074219"/>
       <use xlink:href="#DejaVuSans-64" x="364.697266"/>
      </g>
     </g>
    </g>
    <g id="xtick_6">
     <g id="text_6">
      <!-- little_l2 -->
      <g style="fill: #262626" transform="translate(274.527337 332.435938) scale(0.1 -0.1)">
       <use xlink:href="#DejaVuSans-6c"/>
       <use xlink:href="#DejaVuSans-69" x="27.783203"/>
       <use xlink:href="#DejaVuSans-74" x="55.566406"/>
       <use xlink:href="#DejaVuSans-74" x="94.775391"/>
       <use xlink:href="#DejaVuSans-6c" x="133.984375"/>
       <use xlink:href="#DejaVuSans-65" x="161.767578"/>
       <use xlink:href="#DejaVuSans-5f" x="223.291016"/>
       <use xlink:href="#DejaVuSans-6c" x="273.291016"/>
       <use xlink:href="#DejaVuSans-32" x="301.074219"/>
      </g>
     </g>
    </g>
    <g id="xtick_7">
     <g id="text_7">
      <!-- l3 -->
      <g style="fill: #262626" transform="translate(329.803391 332.435938) scale(0.1 -0.1)">
       <defs>
        <path id="DejaVuSans-33" d="M 2597 2516 
Q 3050 2419 3304 2112 
Q 3559 1806 3559 1356 
Q 3559 666 3084 287 
Q 2609 -91 1734 -91 
Q 1441 -91 1130 -33 
Q 819 25 488 141 
L 488 750 
Q 750 597 1062 519 
Q 1375 441 1716 441 
Q 2309 441 2620 675 
Q 2931 909 2931 1356 
Q 2931 1769 2642 2001 
Q 2353 2234 1838 2234 
L 1294 2234 
L 1294 2753 
L 1863 2753 
Q 2328 2753 2575 2939 
Q 2822 3125 2822 3475 
Q 2822 3834 2567 4026 
Q 2313 4219 1838 4219 
Q 1578 4219 1281 4162 
Q 984 4106 628 3988 
L 628 4550 
Q 988 4650 1302 4700 
Q 1616 4750 1894 4750 
Q 2613 4750 3031 4423 
Q 3450 4097 3450 3541 
Q 3450 3153 3228 2886 
Q 3006 2619 2597 2516 
z
" transform="scale(0.015625)"/>
       </defs>
       <use xlink:href="#DejaVuSans-6c"/>
       <use xlink:href="#DejaVuSans-33" x="27.783203"/>
      </g>
     </g>
    </g>
    <g id="text_8">
     <!-- cache_type -->
     <g style="fill: #262626" transform="translate(181.059602 346.392188) scale(0.1 -0.1)">
      <defs>
       <path id="DejaVuSans-63" d="M 3122 3366 
L 3122 2828 
Q 2878 2963 2633 3030 
Q 2388 3097 2138 3097 
Q 1578 3097 1268 2742 
Q 959 2388 959 1747 
Q 959 1106 1268 751 
Q 1578 397 2138 397 
Q 2388 397 2633 464 
Q 2878 531 3122 666 
L 3122 134 
Q 2881 22 2623 -34 
Q 2366 -91 2075 -91 
Q 1284 -91 818 406 
Q 353 903 353 1747 
Q 353 2603 823 3093 
Q 1294 3584 2113 3584 
Q 2378 3584 2631 3529 
Q 2884 3475 3122 3366 
z
" transform="scale(0.015625)"/>
       <path id="DejaVuSans-61" d="M 2194 1759 
Q 1497 1759 1228 1600 
Q 959 1441 959 1056 
Q 959 750 1161 570 
Q 1363 391 1709 391 
Q 2188 391 2477 730 
Q 2766 1069 2766 1631 
L 2766 1759 
L 2194 1759 
z
M 3341 1997 
L 3341 0 
L 2766 0 
L 2766 531 
Q 2569 213 2275 61 
Q 1981 -91 1556 -91 
Q 1019 -91 701 211 
Q 384 513 384 1019 
Q 384 1609 779 1909 
Q 1175 2209 1959 2209 
L 2766 2209 
L 2766 2266 
Q 2766 2663 2505 2880 
Q 2244 3097 1772 3097 
Q 1472 3097 1187 3025 
Q 903 2953 641 2809 
L 641 3341 
Q 956 3463 1253 3523 
Q 1550 3584 1831 3584 
Q 2591 3584 2966 3190 
Q 3341 2797 3341 1997 
z
" transform="scale(0.015625)"/>
       <path id="DejaVuSans-68" d="M 3513 2113 
L 3513 0 
L 2938 0 
L 2938 2094 
Q 2938 2591 2744 2837 
Q 2550 3084 2163 3084 
Q 1697 3084 1428 2787 
Q 1159 2491 1159 1978 
L 1159 0 
L 581 0 
L 581 4863 
L 1159 4863 
L 1159 2956 
Q 1366 3272 1645 3428 
Q 1925 3584 2291 3584 
Q 2894 3584 3203 3211 
Q 3513 2838 3513 2113 
z
" transform="scale(0.015625)"/>
       <path id="DejaVuSans-79" d="M 2059 -325 
Q 1816 -950 1584 -1140 
Q 1353 -1331 966 -1331 
L 506 -1331 
L 506 -850 
L 844 -850 
Q 1081 -850 1212 -737 
Q 1344 -625 1503 -206 
L 1606 56 
L 191 3500 
L 800 3500 
L 1894 763 
L 2988 3500 
L 3597 3500 
L 2059 -325 
z
" transform="scale(0.015625)"/>
       <path id="DejaVuSans-70" d="M 1159 525 
L 1159 -1331 
L 581 -1331 
L 581 3500 
L 1159 3500 
L 1159 2969 
Q 1341 3281 1617 3432 
Q 1894 3584 2278 3584 
Q 2916 3584 3314 3078 
Q 3713 2572 3713 1747 
Q 3713 922 3314 415 
Q 2916 -91 2278 -91 
Q 1894 -91 1617 61 
Q 1341 213 1159 525 
z
M 3116 1747 
Q 3116 2381 2855 2742 
Q 2594 3103 2138 3103 
Q 1681 3103 1420 2742 
Q 1159 2381 1159 1747 
Q 1159 1113 1420 752 
Q 1681 391 2138 391 
Q 2594 391 2855 752 
Q 3116 1113 3116 1747 
z
" transform="scale(0.015625)"/>
      </defs>
      <use xlink:href="#DejaVuSans-63"/>
      <use xlink:href="#DejaVuSans-61" x="54.980469"/>
      <use xlink:href="#DejaVuSans-63" x="116.259766"/>
      <use xlink:href="#DejaVuSans-68" x="171.240234"/>
      <use xlink:href="#DejaVuSans-65" x="234.619141"/>
      <use xlink:href="#DejaVuSans-5f" x="296.142578"/>
      <use xlink:href="#DejaVuSans-74" x="346.142578"/>
      <use xlink:href="#DejaVuSans-79" x="385.351562"/>
      <use xlink:href="#DejaVuSans-70" x="444.53125"/>
      <use xlink:href="#DejaVuSans-65" x="508.007812"/>
     </g>
    </g>
   </g>
   <g id="matplotlib.axis_2">
    <g id="ytick_1">
     <g id="line2d_1">
      <path d="M 63.895754 304.173939 
L 355.1797 304.173939 
" clip-path="url(#pbb333e0543)" style="fill: none; stroke: #ffffff; stroke-width: 0.8; stroke-linecap: round"/>
     </g>
     <g id="text_9">
      <!-- 0.0 -->
      <g style="fill: #262626" transform="translate(40.992629 307.973158) scale(0.1 -0.1)">
       <defs>
        <path id="DejaVuSans-30" d="M 2034 4250 
Q 1547 4250 1301 3770 
Q 1056 3291 1056 2328 
Q 1056 1369 1301 889 
Q 1547 409 2034 409 
Q 2525 409 2770 889 
Q 3016 1369 3016 2328 
Q 3016 3291 2770 3770 
Q 2525 4250 2034 4250 
z
M 2034 4750 
Q 2819 4750 3233 4129 
Q 3647 3509 3647 2328 
Q 3647 1150 3233 529 
Q 2819 -91 2034 -91 
Q 1250 -91 836 529 
Q 422 1150 422 2328 
Q 422 3509 836 4129 
Q 1250 4750 2034 4750 
z
" transform="scale(0.015625)"/>
        <path id="DejaVuSans-2e" d="M 684 794 
L 1344 794 
L 1344 0 
L 684 0 
L 684 794 
z
" transform="scale(0.015625)"/>
       </defs>
       <use xlink:href="#DejaVuSans-30"/>
       <use xlink:href="#DejaVuSans-2e" x="63.623047"/>
       <use xlink:href="#DejaVuSans-30" x="95.410156"/>
      </g>
     </g>
    </g>
    <g id="ytick_2">
     <g id="line2d_2">
      <path d="M 63.895754 248.27721 
L 355.1797 248.27721 
" clip-path="url(#pbb333e0543)" style="fill: none; stroke: #ffffff; stroke-width: 0.8; stroke-linecap: round"/>
     </g>
     <g id="text_10">
      <!-- 0.2 -->
      <g style="fill: #262626" transform="translate(40.992629 252.076429) scale(0.1 -0.1)">
       <use xlink:href="#DejaVuSans-30"/>
       <use xlink:href="#DejaVuSans-2e" x="63.623047"/>
       <use xlink:href="#DejaVuSans-32" x="95.410156"/>
      </g>
     </g>
    </g>
    <g id="ytick_3">
     <g id="line2d_3">
      <path d="M 63.895754 192.38048 
L 355.1797 192.38048 
" clip-path="url(#pbb333e0543)" style="fill: none; stroke: #ffffff; stroke-width: 0.8; stroke-linecap: round"/>
     </g>
     <g id="text_11">
      <!-- 0.4 -->
      <g style="fill: #262626" transform="translate(40.992629 196.179699) scale(0.1 -0.1)">
       <defs>
        <path id="DejaVuSans-34" d="M 2419 4116 
L 825 1625 
L 2419 1625 
L 2419 4116 
z
M 2253 4666 
L 3047 4666 
L 3047 1625 
L 3713 1625 
L 3713 1100 
L 3047 1100 
L 3047 0 
L 2419 0 
L 2419 1100 
L 313 1100 
L 313 1709 
L 2253 4666 
z
" transform="scale(0.015625)"/>
       </defs>
       <use xlink:href="#DejaVuSans-30"/>
       <use xlink:href="#DejaVuSans-2e" x="63.623047"/>
       <use xlink:href="#DejaVuSans-34" x="95.410156"/>
      </g>
     </g>
    </g>
    <g id="ytick_4">
     <g id="line2d_4">
      <path d="M 63.895754 136.483751 
L 355.1797 136.483751 
" clip-path="url(#pbb333e0543)" style="fill: none; stroke: #ffffff; stroke-width: 0.8; stroke-linecap: round"/>
     </g>
     <g id="text_12">
      <!-- 0.6 -->
      <g style="fill: #262626" transform="translate(40.992629 140.28297) scale(0.1 -0.1)">
       <defs>
        <path id="DejaVuSans-36" d="M 2113 2584 
Q 1688 2584 1439 2293 
Q 1191 2003 1191 1497 
Q 1191 994 1439 701 
Q 1688 409 2113 409 
Q 2538 409 2786 701 
Q 3034 994 3034 1497 
Q 3034 2003 2786 2293 
Q 2538 2584 2113 2584 
z
M 3366 4563 
L 3366 3988 
Q 3128 4100 2886 4159 
Q 2644 4219 2406 4219 
Q 1781 4219 1451 3797 
Q 1122 3375 1075 2522 
Q 1259 2794 1537 2939 
Q 1816 3084 2150 3084 
Q 2853 3084 3261 2657 
Q 3669 2231 3669 1497 
Q 3669 778 3244 343 
Q 2819 -91 2113 -91 
Q 1303 -91 875 529 
Q 447 1150 447 2328 
Q 447 3434 972 4092 
Q 1497 4750 2381 4750 
Q 2619 4750 2861 4703 
Q 3103 4656 3366 4563 
z
" transform="scale(0.015625)"/>
       </defs>
       <use xlink:href="#DejaVuSans-30"/>
       <use xlink:href="#DejaVuSans-2e" x="63.623047"/>
       <use xlink:href="#DejaVuSans-36" x="95.410156"/>
      </g>
     </g>
    </g>
    <g id="ytick_5">
     <g id="line2d_5">
      <path d="M 63.895754 80.587021 
L 355.1797 80.587021 
" clip-path="url(#pbb333e0543)" style="fill: none; stroke: #ffffff; stroke-width: 0.8; stroke-linecap: round"/>
     </g>
     <g id="text_13">
      <!-- 0.8 -->
      <g style="fill: #262626" transform="translate(40.992629 84.38624) scale(0.1 -0.1)">
       <defs>
        <path id="DejaVuSans-38" d="M 2034 2216 
Q 1584 2216 1326 1975 
Q 1069 1734 1069 1313 
Q 1069 891 1326 650 
Q 1584 409 2034 409 
Q 2484 409 2743 651 
Q 3003 894 3003 1313 
Q 3003 1734 2745 1975 
Q 2488 2216 2034 2216 
z
M 1403 2484 
Q 997 2584 770 2862 
Q 544 3141 544 3541 
Q 544 4100 942 4425 
Q 1341 4750 2034 4750 
Q 2731 4750 3128 4425 
Q 3525 4100 3525 3541 
Q 3525 3141 3298 2862 
Q 3072 2584 2669 2484 
Q 3125 2378 3379 2068 
Q 3634 1759 3634 1313 
Q 3634 634 3220 271 
Q 2806 -91 2034 -91 
Q 1263 -91 848 271 
Q 434 634 434 1313 
Q 434 1759 690 2068 
Q 947 2378 1403 2484 
z
M 1172 3481 
Q 1172 3119 1398 2916 
Q 1625 2713 2034 2713 
Q 2441 2713 2670 2916 
Q 2900 3119 2900 3481 
Q 2900 3844 2670 4047 
Q 2441 4250 2034 4250 
Q 1625 4250 1398 4047 
Q 1172 3844 1172 3481 
z
" transform="scale(0.015625)"/>
       </defs>
       <use xlink:href="#DejaVuSans-30"/>
       <use xlink:href="#DejaVuSans-2e" x="63.623047"/>
       <use xlink:href="#DejaVuSans-38" x="95.410156"/>
      </g>
     </g>
    </g>
    <g id="ytick_6">
     <g id="line2d_6">
      <path d="M 63.895754 24.690292 
L 355.1797 24.690292 
" clip-path="url(#pbb333e0543)" style="fill: none; stroke: #ffffff; stroke-width: 0.8; stroke-linecap: round"/>
     </g>
     <g id="text_14">
      <!-- 1.0 -->
      <g style="fill: #262626" transform="translate(40.992629 28.489511) scale(0.1 -0.1)">
       <use xlink:href="#DejaVuSans-31"/>
       <use xlink:href="#DejaVuSans-2e" x="63.623047"/>
       <use xlink:href="#DejaVuSans-30" x="95.410156"/>
      </g>
     </g>
    </g>
    <g id="text_15">
     <!-- missrate -->
     <g style="fill: #262626" transform="translate(34.912942 185.94375) rotate(-90) scale(0.1 -0.1)">
      <defs>
       <path id="DejaVuSans-6d" d="M 3328 2828 
Q 3544 3216 3844 3400 
Q 4144 3584 4550 3584 
Q 5097 3584 5394 3201 
Q 5691 2819 5691 2113 
L 5691 0 
L 5113 0 
L 5113 2094 
Q 5113 2597 4934 2840 
Q 4756 3084 4391 3084 
Q 3944 3084 3684 2787 
Q 3425 2491 3425 1978 
L 3425 0 
L 2847 0 
L 2847 2094 
Q 2847 2600 2669 2842 
Q 2491 3084 2119 3084 
Q 1678 3084 1418 2786 
Q 1159 2488 1159 1978 
L 1159 0 
L 581 0 
L 581 3500 
L 1159 3500 
L 1159 2956 
Q 1356 3278 1631 3431 
Q 1906 3584 2284 3584 
Q 2666 3584 2933 3390 
Q 3200 3197 3328 2828 
z
" transform="scale(0.015625)"/>
       <path id="DejaVuSans-73" d="M 2834 3397 
L 2834 2853 
Q 2591 2978 2328 3040 
Q 2066 3103 1784 3103 
Q 1356 3103 1142 2972 
Q 928 2841 928 2578 
Q 928 2378 1081 2264 
Q 1234 2150 1697 2047 
L 1894 2003 
Q 2506 1872 2764 1633 
Q 3022 1394 3022 966 
Q 3022 478 2636 193 
Q 2250 -91 1575 -91 
Q 1294 -91 989 -36 
Q 684 19 347 128 
L 347 722 
Q 666 556 975 473 
Q 1284 391 1588 391 
Q 1994 391 2212 530 
Q 2431 669 2431 922 
Q 2431 1156 2273 1281 
Q 2116 1406 1581 1522 
L 1381 1569 
Q 847 1681 609 1914 
Q 372 2147 372 2553 
Q 372 3047 722 3315 
Q 1072 3584 1716 3584 
Q 2034 3584 2315 3537 
Q 2597 3491 2834 3397 
z
" transform="scale(0.015625)"/>
       <path id="DejaVuSans-72" d="M 2631 2963 
Q 2534 3019 2420 3045 
Q 2306 3072 2169 3072 
Q 1681 3072 1420 2755 
Q 1159 2438 1159 1844 
L 1159 0 
L 581 0 
L 581 3500 
L 1159 3500 
L 1159 2956 
Q 1341 3275 1631 3429 
Q 1922 3584 2338 3584 
Q 2397 3584 2469 3576 
Q 2541 3569 2628 3553 
L 2631 2963 
z
" transform="scale(0.015625)"/>
      </defs>
      <use xlink:href="#DejaVuSans-6d"/>
      <use xlink:href="#DejaVuSans-69" x="97.412109"/>
      <use xlink:href="#DejaVuSans-73" x="125.195312"/>
      <use xlink:href="#DejaVuSans-73" x="177.294922"/>
      <use xlink:href="#DejaVuSans-72" x="229.394531"/>
      <use xlink:href="#DejaVuSans-61" x="270.507812"/>
      <use xlink:href="#DejaVuSans-74" x="331.787109"/>
      <use xlink:href="#DejaVuSans-65" x="370.996094"/>
     </g>
    </g>
   </g>
   <g id="patch_3">
    <path d="M 84.701751 304.173939 
L 84.701751 304.173939 
L 84.701751 304.173939 
L 84.701751 304.173939 
z
" clip-path="url(#pbb333e0543)" style="fill: #abc9ea; stroke: #6f6f6f; stroke-linejoin: miter"/>
   </g>
   <g id="patch_4">
    <path d="M 84.701751 304.173939 
L 84.701751 304.173939 
L 84.701751 304.173939 
L 84.701751 304.173939 
z
" clip-path="url(#pbb333e0543)" style="fill: #efb792; stroke: #6f6f6f; stroke-linejoin: miter"/>
   </g>
   <g id="patch_5">
    <path d="M 84.701751 304.173939 
L 84.701751 304.173939 
L 84.701751 304.173939 
L 84.701751 304.173939 
z
" clip-path="url(#pbb333e0543)" style="fill: #98daa7; stroke: #6f6f6f; stroke-linejoin: miter"/>
   </g>
   <g id="patch_6">
    <path d="M 68.056954 288.075227 
L 79.153485 288.075227 
L 79.153485 273.344098 
L 68.056954 273.344098 
L 68.056954 288.075227 
z
" clip-path="url(#pbb333e0543)" style="fill: #abc9ea; stroke: #6f6f6f; stroke-linejoin: miter"/>
   </g>
   <g id="line2d_7">
    <path d="M 73.605219 288.075227 
L 73.605219 294.08961 
" clip-path="url(#pbb333e0543)" style="fill: none; stroke: #6f6f6f"/>
   </g>
   <g id="line2d_8">
    <path d="M 73.605219 273.344098 
L 73.605219 265.540775 
" clip-path="url(#pbb333e0543)" style="fill: none; stroke: #6f6f6f"/>
   </g>
   <g id="line2d_9">
    <path d="M 70.831086 294.08961 
L 76.379352 294.08961 
" clip-path="url(#pbb333e0543)" style="fill: none; stroke: #6f6f6f; stroke-linecap: round"/>
   </g>
   <g id="line2d_10">
    <path d="M 70.831086 265.540775 
L 76.379352 265.540775 
" clip-path="url(#pbb333e0543)" style="fill: none; stroke: #6f6f6f; stroke-linecap: round"/>
   </g>
   <g id="line2d_11"/>
   <g id="patch_7">
    <path d="M 109.668946 220.604346 
L 120.765477 220.604346 
L 120.765477 122.994962 
L 109.668946 122.994962 
L 109.668946 220.604346 
z
" clip-path="url(#pbb333e0543)" style="fill: #abc9ea; stroke: #6f6f6f; stroke-linejoin: miter"/>
   </g>
   <g id="line2d_12">
    <path d="M 115.217212 220.604346 
L 115.217212 233.599497 
" clip-path="url(#pbb333e0543)" style="fill: none; stroke: #6f6f6f"/>
   </g>
   <g id="line2d_13">
    <path d="M 115.217212 122.994962 
L 115.217212 66.312534 
" clip-path="url(#pbb333e0543)" style="fill: none; stroke: #6f6f6f"/>
   </g>
   <g id="line2d_14">
    <path d="M 112.443079 233.599497 
L 117.991344 233.599497 
" clip-path="url(#pbb333e0543)" style="fill: none; stroke: #6f6f6f; stroke-linecap: round"/>
   </g>
   <g id="line2d_15">
    <path d="M 112.443079 66.312534 
L 117.991344 66.312534 
" clip-path="url(#pbb333e0543)" style="fill: none; stroke: #6f6f6f; stroke-linecap: round"/>
   </g>
   <g id="line2d_16"/>
   <g id="patch_8">
    <path d="M 151.280938 257.448885 
L 162.377469 257.448885 
L 162.377469 104.492131 
L 151.280938 104.492131 
L 151.280938 257.448885 
z
" clip-path="url(#pbb333e0543)" style="fill: #abc9ea; stroke: #6f6f6f; stroke-linejoin: miter"/>
   </g>
   <g id="line2d_17">
    <path d="M 156.829204 257.448885 
L 156.829204 303.878141 
" clip-path="url(#pbb333e0543)" style="fill: none; stroke: #6f6f6f"/>
   </g>
   <g id="line2d_18">
    <path d="M 156.829204 104.492131 
L 156.829204 35.399232 
" clip-path="url(#pbb333e0543)" style="fill: none; stroke: #6f6f6f"/>
   </g>
   <g id="line2d_19">
    <path d="M 154.055071 303.878141 
L 159.603337 303.878141 
" clip-path="url(#pbb333e0543)" style="fill: none; stroke: #6f6f6f; stroke-linecap: round"/>
   </g>
   <g id="line2d_20">
    <path d="M 154.055071 35.399232 
L 159.603337 35.399232 
" clip-path="url(#pbb333e0543)" style="fill: none; stroke: #6f6f6f; stroke-linecap: round"/>
   </g>
   <g id="line2d_21"/>
   <g id="patch_9">
    <path d="M 192.89293 297.845535 
L 203.989462 297.845535 
L 203.989462 292.498964 
L 192.89293 292.498964 
L 192.89293 297.845535 
z
" clip-path="url(#pbb333e0543)" style="fill: #abc9ea; stroke: #6f6f6f; stroke-linejoin: miter"/>
   </g>
   <g id="line2d_22">
    <path d="M 198.441196 297.845535 
L 198.441196 299.216808 
" clip-path="url(#pbb333e0543)" style="fill: none; stroke: #6f6f6f"/>
   </g>
   <g id="line2d_23">
    <path d="M 198.441196 292.498964 
L 198.441196 290.017054 
" clip-path="url(#pbb333e0543)" style="fill: none; stroke: #6f6f6f"/>
   </g>
   <g id="line2d_24">
    <path d="M 195.667063 299.216808 
L 201.215329 299.216808 
" clip-path="url(#pbb333e0543)" style="fill: none; stroke: #6f6f6f; stroke-linecap: round"/>
   </g>
   <g id="line2d_25">
    <path d="M 195.667063 290.017054 
L 201.215329 290.017054 
" clip-path="url(#pbb333e0543)" style="fill: none; stroke: #6f6f6f; stroke-linecap: round"/>
   </g>
   <g id="line2d_26"/>
   <g id="patch_10">
    <path d="M 234.504923 218.571242 
L 245.601454 218.571242 
L 245.601454 142.92784 
L 234.504923 142.92784 
L 234.504923 218.571242 
z
" clip-path="url(#pbb333e0543)" style="fill: #abc9ea; stroke: #6f6f6f; stroke-linejoin: miter"/>
   </g>
   <g id="line2d_27">
    <path d="M 240.053188 218.571242 
L 240.053188 230.61269 
" clip-path="url(#pbb333e0543)" style="fill: none; stroke: #6f6f6f"/>
   </g>
   <g id="line2d_28">
    <path d="M 240.053188 142.92784 
L 240.053188 93.522014 
" clip-path="url(#pbb333e0543)" style="fill: none; stroke: #6f6f6f"/>
   </g>
   <g id="line2d_29">
    <path d="M 237.279055 230.61269 
L 242.827321 230.61269 
" clip-path="url(#pbb333e0543)" style="fill: none; stroke: #6f6f6f; stroke-linecap: round"/>
   </g>
   <g id="line2d_30">
    <path d="M 237.279055 93.522014 
L 242.827321 93.522014 
" clip-path="url(#pbb333e0543)" style="fill: none; stroke: #6f6f6f; stroke-linecap: round"/>
   </g>
   <g id="line2d_31"/>
   <g id="patch_11">
    <path d="M 276.116915 214.654279 
L 287.213446 214.654279 
L 287.213446 63.704881 
L 276.116915 63.704881 
L 276.116915 214.654279 
z
" clip-path="url(#pbb333e0543)" style="fill: #abc9ea; stroke: #6f6f6f; stroke-linejoin: miter"/>
   </g>
   <g id="line2d_32">
    <path d="M 281.66518 214.654279 
L 281.66518 248.968897 
" clip-path="url(#pbb333e0543)" style="fill: none; stroke: #6f6f6f"/>
   </g>
   <g id="line2d_33">
    <path d="M 281.66518 63.704881 
L 281.66518 58.523569 
" clip-path="url(#pbb333e0543)" style="fill: none; stroke: #6f6f6f"/>
   </g>
   <g id="line2d_34">
    <path d="M 278.891048 248.968897 
L 284.439313 248.968897 
" clip-path="url(#pbb333e0543)" style="fill: none; stroke: #6f6f6f; stroke-linecap: round"/>
   </g>
   <g id="line2d_35">
    <path d="M 278.891048 58.523569 
L 284.439313 58.523569 
" clip-path="url(#pbb333e0543)" style="fill: none; stroke: #6f6f6f; stroke-linecap: round"/>
   </g>
   <g id="line2d_36"/>
   <g id="patch_12">
    <path d="M 317.728907 296.972065 
L 328.825438 296.972065 
L 328.825438 203.774889 
L 317.728907 203.774889 
L 317.728907 296.972065 
z
" clip-path="url(#pbb333e0543)" style="fill: #abc9ea; stroke: #6f6f6f; stroke-linejoin: miter"/>
   </g>
   <g id="line2d_37">
    <path d="M 323.277173 296.972065 
L 323.277173 303.88125 
" clip-path="url(#pbb333e0543)" style="fill: none; stroke: #6f6f6f"/>
   </g>
   <g id="line2d_38">
    <path d="M 323.277173 203.774889 
L 323.277173 74.926919 
" clip-path="url(#pbb333e0543)" style="fill: none; stroke: #6f6f6f"/>
   </g>
   <g id="line2d_39">
    <path d="M 320.50304 303.88125 
L 326.051305 303.88125 
" clip-path="url(#pbb333e0543)" style="fill: none; stroke: #6f6f6f; stroke-linecap: round"/>
   </g>
   <g id="line2d_40">
    <path d="M 320.50304 74.926919 
L 326.051305 74.926919 
" clip-path="url(#pbb333e0543)" style="fill: none; stroke: #6f6f6f; stroke-linecap: round"/>
   </g>
   <g id="line2d_41">
    <defs>
     <path id="me05a3b22c8" d="M 0 2.5 
C 0.663008 2.5 1.29895 2.236584 1.767767 1.767767 
C 2.236584 1.29895 2.5 0.663008 2.5 0 
C 2.5 -0.663008 2.236584 -1.29895 1.767767 -1.767767 
C 1.29895 -2.236584 0.663008 -2.5 0 -2.5 
C -0.663008 -2.5 -1.29895 -2.236584 -1.767767 -1.767767 
C -2.236584 -1.29895 -2.5 -0.663008 -2.5 0 
C -2.5 0.663008 -2.236584 1.29895 -1.767767 1.767767 
C -1.29895 2.236584 -0.663008 2.5 0 2.5 
z
" style="stroke: #6f6f6f"/>
    </defs>
    <g clip-path="url(#pbb333e0543)">
     <use xlink:href="#me05a3b22c8" x="323.277173" y="36.390456" style="fill-opacity: 0; stroke: #6f6f6f"/>
     <use xlink:href="#me05a3b22c8" x="323.277173" y="45.205789" style="fill-opacity: 0; stroke: #6f6f6f"/>
     <use xlink:href="#me05a3b22c8" x="323.277173" y="39.166287" style="fill-opacity: 0; stroke: #6f6f6f"/>
     <use xlink:href="#me05a3b22c8" x="323.277173" y="38.79688" style="fill-opacity: 0; stroke: #6f6f6f"/>
     <use xlink:href="#me05a3b22c8" x="323.277173" y="49.063362" style="fill-opacity: 0; stroke: #6f6f6f"/>
     <use xlink:href="#me05a3b22c8" x="323.277173" y="52.638447" style="fill-opacity: 0; stroke: #6f6f6f"/>
    </g>
   </g>
   <g id="patch_13">
    <path d="M 79.153485 290.671875 
L 90.250016 290.671875 
L 90.250016 278.140771 
L 79.153485 278.140771 
L 79.153485 290.671875 
z
" clip-path="url(#pbb333e0543)" style="fill: #efb792; stroke: #6f6f6f; stroke-linejoin: miter"/>
   </g>
   <g id="line2d_42">
    <path d="M 84.701751 290.671875 
L 84.701751 293.578994 
" clip-path="url(#pbb333e0543)" style="fill: none; stroke: #6f6f6f"/>
   </g>
   <g id="line2d_43">
    <path d="M 84.701751 278.140771 
L 84.701751 271.249822 
" clip-path="url(#pbb333e0543)" style="fill: none; stroke: #6f6f6f"/>
   </g>
   <g id="line2d_44">
    <path d="M 81.927618 293.578994 
L 87.475883 293.578994 
" clip-path="url(#pbb333e0543)" style="fill: none; stroke: #6f6f6f; stroke-linecap: round"/>
   </g>
   <g id="line2d_45">
    <path d="M 81.927618 271.249822 
L 87.475883 271.249822 
" clip-path="url(#pbb333e0543)" style="fill: none; stroke: #6f6f6f; stroke-linecap: round"/>
   </g>
   <g id="line2d_46"/>
   <g id="patch_14">
    <path d="M 120.765477 227.273245 
L 131.862008 227.273245 
L 131.862008 139.553459 
L 120.765477 139.553459 
L 120.765477 227.273245 
z
" clip-path="url(#pbb333e0543)" style="fill: #efb792; stroke: #6f6f6f; stroke-linejoin: miter"/>
   </g>
   <g id="line2d_47">
    <path d="M 126.313743 227.273245 
L 126.313743 250.506267 
" clip-path="url(#pbb333e0543)" style="fill: none; stroke: #6f6f6f"/>
   </g>
   <g id="line2d_48">
    <path d="M 126.313743 139.553459 
L 126.313743 87.157612 
" clip-path="url(#pbb333e0543)" style="fill: none; stroke: #6f6f6f"/>
   </g>
   <g id="line2d_49">
    <path d="M 123.53961 250.506267 
L 129.087876 250.506267 
" clip-path="url(#pbb333e0543)" style="fill: none; stroke: #6f6f6f; stroke-linecap: round"/>
   </g>
   <g id="line2d_50">
    <path d="M 123.53961 87.157612 
L 129.087876 87.157612 
" clip-path="url(#pbb333e0543)" style="fill: none; stroke: #6f6f6f; stroke-linecap: round"/>
   </g>
   <g id="line2d_51"/>
   <g id="patch_15">
    <path d="M 162.377469 255.3217 
L 173.474001 255.3217 
L 173.474001 90.10026 
L 162.377469 90.10026 
L 162.377469 255.3217 
z
" clip-path="url(#pbb333e0543)" style="fill: #efb792; stroke: #6f6f6f; stroke-linejoin: miter"/>
   </g>
   <g id="line2d_52">
    <path d="M 167.925735 255.3217 
L 167.925735 303.832061 
" clip-path="url(#pbb333e0543)" style="fill: none; stroke: #6f6f6f"/>
   </g>
   <g id="line2d_53">
    <path d="M 167.925735 90.10026 
L 167.925735 25.252997 
" clip-path="url(#pbb333e0543)" style="fill: none; stroke: #6f6f6f"/>
   </g>
   <g id="line2d_54">
    <path d="M 165.151602 303.832061 
L 170.699868 303.832061 
" clip-path="url(#pbb333e0543)" style="fill: none; stroke: #6f6f6f; stroke-linecap: round"/>
   </g>
   <g id="line2d_55">
    <path d="M 165.151602 25.252997 
L 170.699868 25.252997 
" clip-path="url(#pbb333e0543)" style="fill: none; stroke: #6f6f6f; stroke-linecap: round"/>
   </g>
   <g id="line2d_56"/>
   <g id="patch_16">
    <path d="M 203.989462 299.404383 
L 215.085993 299.404383 
L 215.085993 294.396099 
L 203.989462 294.396099 
L 203.989462 299.404383 
z
" clip-path="url(#pbb333e0543)" style="fill: #efb792; stroke: #6f6f6f; stroke-linejoin: miter"/>
   </g>
   <g id="line2d_57">
    <path d="M 209.537727 299.404383 
L 209.537727 300.74938 
" clip-path="url(#pbb333e0543)" style="fill: none; stroke: #6f6f6f"/>
   </g>
   <g id="line2d_58">
    <path d="M 209.537727 294.396099 
L 209.537727 290.047438 
" clip-path="url(#pbb333e0543)" style="fill: none; stroke: #6f6f6f"/>
   </g>
   <g id="line2d_59">
    <path d="M 206.763594 300.74938 
L 212.31186 300.74938 
" clip-path="url(#pbb333e0543)" style="fill: none; stroke: #6f6f6f; stroke-linecap: round"/>
   </g>
   <g id="line2d_60">
    <path d="M 206.763594 290.047438 
L 212.31186 290.047438 
" clip-path="url(#pbb333e0543)" style="fill: none; stroke: #6f6f6f; stroke-linecap: round"/>
   </g>
   <g id="line2d_61"/>
   <g id="patch_17">
    <path d="M 245.601454 229.9551 
L 256.697985 229.9551 
L 256.697985 158.19729 
L 245.601454 158.19729 
L 245.601454 229.9551 
z
" clip-path="url(#pbb333e0543)" style="fill: #efb792; stroke: #6f6f6f; stroke-linejoin: miter"/>
   </g>
   <g id="line2d_62">
    <path d="M 251.149719 229.9551 
L 251.149719 250.008366 
" clip-path="url(#pbb333e0543)" style="fill: none; stroke: #6f6f6f"/>
   </g>
   <g id="line2d_63">
    <path d="M 251.149719 158.19729 
L 251.149719 108.949406 
" clip-path="url(#pbb333e0543)" style="fill: none; stroke: #6f6f6f"/>
   </g>
   <g id="line2d_64">
    <path d="M 248.375587 250.008366 
L 253.923852 250.008366 
" clip-path="url(#pbb333e0543)" style="fill: none; stroke: #6f6f6f; stroke-linecap: round"/>
   </g>
   <g id="line2d_65">
    <path d="M 248.375587 108.949406 
L 253.923852 108.949406 
" clip-path="url(#pbb333e0543)" style="fill: none; stroke: #6f6f6f; stroke-linecap: round"/>
   </g>
   <g id="line2d_66"/>
   <g id="patch_18">
    <path d="M 287.213446 183.730636 
L 298.309977 183.730636 
L 298.309977 37.873501 
L 287.213446 37.873501 
L 287.213446 183.730636 
z
" clip-path="url(#pbb333e0543)" style="fill: #efb792; stroke: #6f6f6f; stroke-linejoin: miter"/>
   </g>
   <g id="line2d_67">
    <path d="M 292.761712 183.730636 
L 292.761712 243.068333 
" clip-path="url(#pbb333e0543)" style="fill: none; stroke: #6f6f6f"/>
   </g>
   <g id="line2d_68">
    <path d="M 292.761712 37.873501 
L 292.761712 25.325698 
" clip-path="url(#pbb333e0543)" style="fill: none; stroke: #6f6f6f"/>
   </g>
   <g id="line2d_69">
    <path d="M 289.987579 243.068333 
L 295.535844 243.068333 
" clip-path="url(#pbb333e0543)" style="fill: none; stroke: #6f6f6f; stroke-linecap: round"/>
   </g>
   <g id="line2d_70">
    <path d="M 289.987579 25.325698 
L 295.535844 25.325698 
" clip-path="url(#pbb333e0543)" style="fill: none; stroke: #6f6f6f; stroke-linecap: round"/>
   </g>
   <g id="line2d_71"/>
   <g id="patch_19">
    <path d="M 328.825438 296.338056 
L 339.92197 296.338056 
L 339.92197 201.922262 
L 328.825438 201.922262 
L 328.825438 296.338056 
z
" clip-path="url(#pbb333e0543)" style="fill: #efb792; stroke: #6f6f6f; stroke-linejoin: miter"/>
   </g>
   <g id="line2d_72">
    <path d="M 334.373704 296.338056 
L 334.373704 303.808864 
" clip-path="url(#pbb333e0543)" style="fill: none; stroke: #6f6f6f"/>
   </g>
   <g id="line2d_73">
    <path d="M 334.373704 201.922262 
L 334.373704 71.028401 
" clip-path="url(#pbb333e0543)" style="fill: none; stroke: #6f6f6f"/>
   </g>
   <g id="line2d_74">
    <path d="M 331.599571 303.808864 
L 337.147837 303.808864 
" clip-path="url(#pbb333e0543)" style="fill: none; stroke: #6f6f6f; stroke-linecap: round"/>
   </g>
   <g id="line2d_75">
    <path d="M 331.599571 71.028401 
L 337.147837 71.028401 
" clip-path="url(#pbb333e0543)" style="fill: none; stroke: #6f6f6f; stroke-linecap: round"/>
   </g>
   <g id="line2d_76">
    <g clip-path="url(#pbb333e0543)">
     <use xlink:href="#me05a3b22c8" x="334.373704" y="32.848839" style="fill-opacity: 0; stroke: #6f6f6f"/>
     <use xlink:href="#me05a3b22c8" x="334.373704" y="43.471174" style="fill-opacity: 0; stroke: #6f6f6f"/>
     <use xlink:href="#me05a3b22c8" x="334.373704" y="35.016374" style="fill-opacity: 0; stroke: #6f6f6f"/>
     <use xlink:href="#me05a3b22c8" x="334.373704" y="36.751409" style="fill-opacity: 0; stroke: #6f6f6f"/>
     <use xlink:href="#me05a3b22c8" x="334.373704" y="44.233535" style="fill-opacity: 0; stroke: #6f6f6f"/>
     <use xlink:href="#me05a3b22c8" x="334.373704" y="54.584981" style="fill-opacity: 0; stroke: #6f6f6f"/>
    </g>
   </g>
   <g id="patch_20">
    <path d="M 90.250016 292.864873 
L 101.346547 292.864873 
L 101.346547 283.24271 
L 90.250016 283.24271 
L 90.250016 292.864873 
z
" clip-path="url(#pbb333e0543)" style="fill: #98daa7; stroke: #6f6f6f; stroke-linejoin: miter"/>
   </g>
   <g id="line2d_77">
    <path d="M 95.798282 292.864873 
L 95.798282 294.504005 
" clip-path="url(#pbb333e0543)" style="fill: none; stroke: #6f6f6f"/>
   </g>
   <g id="line2d_78">
    <path d="M 95.798282 283.24271 
L 95.798282 276.008975 
" clip-path="url(#pbb333e0543)" style="fill: none; stroke: #6f6f6f"/>
   </g>
   <g id="line2d_79">
    <path d="M 93.024149 294.504005 
L 98.572415 294.504005 
" clip-path="url(#pbb333e0543)" style="fill: none; stroke: #6f6f6f; stroke-linecap: round"/>
   </g>
   <g id="line2d_80">
    <path d="M 93.024149 276.008975 
L 98.572415 276.008975 
" clip-path="url(#pbb333e0543)" style="fill: none; stroke: #6f6f6f; stroke-linecap: round"/>
   </g>
   <g id="line2d_81"/>
   <g id="patch_21">
    <path d="M 131.862008 227.36282 
L 142.95854 227.36282 
L 142.95854 188.521021 
L 131.862008 188.521021 
L 131.862008 227.36282 
z
" clip-path="url(#pbb333e0543)" style="fill: #98daa7; stroke: #6f6f6f; stroke-linejoin: miter"/>
   </g>
   <g id="line2d_82">
    <path d="M 137.410274 227.36282 
L 137.410274 252.106904 
" clip-path="url(#pbb333e0543)" style="fill: none; stroke: #6f6f6f"/>
   </g>
   <g id="line2d_83">
    <path d="M 137.410274 188.521021 
L 137.410274 176.89251 
" clip-path="url(#pbb333e0543)" style="fill: none; stroke: #6f6f6f"/>
   </g>
   <g id="line2d_84">
    <path d="M 134.636141 252.106904 
L 140.184407 252.106904 
" clip-path="url(#pbb333e0543)" style="fill: none; stroke: #6f6f6f; stroke-linecap: round"/>
   </g>
   <g id="line2d_85">
    <path d="M 134.636141 176.89251 
L 140.184407 176.89251 
" clip-path="url(#pbb333e0543)" style="fill: none; stroke: #6f6f6f; stroke-linecap: round"/>
   </g>
   <g id="line2d_86">
    <g clip-path="url(#pbb333e0543)">
     <use xlink:href="#me05a3b22c8" x="137.410274" y="101.610969" style="fill-opacity: 0; stroke: #6f6f6f"/>
     <use xlink:href="#me05a3b22c8" x="137.410274" y="98.674155" style="fill-opacity: 0; stroke: #6f6f6f"/>
     <use xlink:href="#me05a3b22c8" x="137.410274" y="93.99766" style="fill-opacity: 0; stroke: #6f6f6f"/>
     <use xlink:href="#me05a3b22c8" x="137.410274" y="116.679819" style="fill-opacity: 0; stroke: #6f6f6f"/>
     <use xlink:href="#me05a3b22c8" x="137.410274" y="117.05017" style="fill-opacity: 0; stroke: #6f6f6f"/>
     <use xlink:href="#me05a3b22c8" x="137.410274" y="109.463307" style="fill-opacity: 0; stroke: #6f6f6f"/>
     <use xlink:href="#me05a3b22c8" x="137.410274" y="119.006765" style="fill-opacity: 0; stroke: #6f6f6f"/>
     <use xlink:href="#me05a3b22c8" x="137.410274" y="118.529861" style="fill-opacity: 0; stroke: #6f6f6f"/>
     <use xlink:href="#me05a3b22c8" x="137.410274" y="117.665733" style="fill-opacity: 0; stroke: #6f6f6f"/>
    </g>
   </g>
   <g id="patch_22">
    <path d="M 173.474001 258.263056 
L 184.570532 258.263056 
L 184.570532 85.923238 
L 173.474001 85.923238 
L 173.474001 258.263056 
z
" clip-path="url(#pbb333e0543)" style="fill: #98daa7; stroke: #6f6f6f; stroke-linejoin: miter"/>
   </g>
   <g id="line2d_87">
    <path d="M 179.022266 258.263056 
L 179.022266 303.768933 
" clip-path="url(#pbb333e0543)" style="fill: none; stroke: #6f6f6f"/>
   </g>
   <g id="line2d_88">
    <path d="M 179.022266 85.923238 
L 179.022266 24.75625 
" clip-path="url(#pbb333e0543)" style="fill: none; stroke: #6f6f6f"/>
   </g>
   <g id="line2d_89">
    <path d="M 176.248133 303.768933 
L 181.796399 303.768933 
" clip-path="url(#pbb333e0543)" style="fill: none; stroke: #6f6f6f; stroke-linecap: round"/>
   </g>
   <g id="line2d_90">
    <path d="M 176.248133 24.75625 
L 181.796399 24.75625 
" clip-path="url(#pbb333e0543)" style="fill: none; stroke: #6f6f6f; stroke-linecap: round"/>
   </g>
   <g id="line2d_91"/>
   <g id="patch_23">
    <path d="M 215.085993 300.363389 
L 226.182524 300.363389 
L 226.182524 294.995497 
L 215.085993 294.995497 
L 215.085993 300.363389 
z
" clip-path="url(#pbb333e0543)" style="fill: #98daa7; stroke: #6f6f6f; stroke-linejoin: miter"/>
   </g>
   <g id="line2d_92">
    <path d="M 220.634258 300.363389 
L 220.634258 301.343096 
" clip-path="url(#pbb333e0543)" style="fill: none; stroke: #6f6f6f"/>
   </g>
   <g id="line2d_93">
    <path d="M 220.634258 294.995497 
L 220.634258 289.536207 
" clip-path="url(#pbb333e0543)" style="fill: none; stroke: #6f6f6f"/>
   </g>
   <g id="line2d_94">
    <path d="M 217.860126 301.343096 
L 223.408391 301.343096 
" clip-path="url(#pbb333e0543)" style="fill: none; stroke: #6f6f6f; stroke-linecap: round"/>
   </g>
   <g id="line2d_95">
    <path d="M 217.860126 289.536207 
L 223.408391 289.536207 
" clip-path="url(#pbb333e0543)" style="fill: none; stroke: #6f6f6f; stroke-linecap: round"/>
   </g>
   <g id="line2d_96"/>
   <g id="patch_24">
    <path d="M 256.697985 230.084257 
L 267.794516 230.084257 
L 267.794516 192.624644 
L 256.697985 192.624644 
L 256.697985 230.084257 
z
" clip-path="url(#pbb333e0543)" style="fill: #98daa7; stroke: #6f6f6f; stroke-linejoin: miter"/>
   </g>
   <g id="line2d_97">
    <path d="M 262.246251 230.084257 
L 262.246251 273.844653 
" clip-path="url(#pbb333e0543)" style="fill: none; stroke: #6f6f6f"/>
   </g>
   <g id="line2d_98">
    <path d="M 262.246251 192.624644 
L 262.246251 150.617169 
" clip-path="url(#pbb333e0543)" style="fill: none; stroke: #6f6f6f"/>
   </g>
   <g id="line2d_99">
    <path d="M 259.472118 273.844653 
L 265.020384 273.844653 
" clip-path="url(#pbb333e0543)" style="fill: none; stroke: #6f6f6f; stroke-linecap: round"/>
   </g>
   <g id="line2d_100">
    <path d="M 259.472118 150.617169 
L 265.020384 150.617169 
" clip-path="url(#pbb333e0543)" style="fill: none; stroke: #6f6f6f; stroke-linecap: round"/>
   </g>
   <g id="line2d_101"/>
   <g id="patch_25">
    <path d="M 298.309977 132.9661 
L 309.406509 132.9661 
L 309.406509 42.196344 
L 298.309977 42.196344 
L 298.309977 132.9661 
z
" clip-path="url(#pbb333e0543)" style="fill: #98daa7; stroke: #6f6f6f; stroke-linejoin: miter"/>
   </g>
   <g id="line2d_102">
    <path d="M 303.858243 132.9661 
L 303.858243 239.042057 
" clip-path="url(#pbb333e0543)" style="fill: none; stroke: #6f6f6f"/>
   </g>
   <g id="line2d_103">
    <path d="M 303.858243 42.196344 
L 303.858243 24.765298 
" clip-path="url(#pbb333e0543)" style="fill: none; stroke: #6f6f6f"/>
   </g>
   <g id="line2d_104">
    <path d="M 301.08411 239.042057 
L 306.632376 239.042057 
" clip-path="url(#pbb333e0543)" style="fill: none; stroke: #6f6f6f; stroke-linecap: round"/>
   </g>
   <g id="line2d_105">
    <path d="M 301.08411 24.765298 
L 306.632376 24.765298 
" clip-path="url(#pbb333e0543)" style="fill: none; stroke: #6f6f6f; stroke-linecap: round"/>
   </g>
   <g id="line2d_106"/>
   <g id="patch_26">
    <path d="M 339.92197 296.49841 
L 351.018501 296.49841 
L 351.018501 192.350925 
L 339.92197 192.350925 
L 339.92197 296.49841 
z
" clip-path="url(#pbb333e0543)" style="fill: #98daa7; stroke: #6f6f6f; stroke-linejoin: miter"/>
   </g>
   <g id="line2d_107">
    <path d="M 345.470235 296.49841 
L 345.470235 303.796427 
" clip-path="url(#pbb333e0543)" style="fill: none; stroke: #6f6f6f"/>
   </g>
   <g id="line2d_108">
    <path d="M 345.470235 192.350925 
L 345.470235 40.212325 
" clip-path="url(#pbb333e0543)" style="fill: none; stroke: #6f6f6f"/>
   </g>
   <g id="line2d_109">
    <path d="M 342.696102 303.796427 
L 348.244368 303.796427 
" clip-path="url(#pbb333e0543)" style="fill: none; stroke: #6f6f6f; stroke-linecap: round"/>
   </g>
   <g id="line2d_110">
    <path d="M 342.696102 40.212325 
L 348.244368 40.212325 
" clip-path="url(#pbb333e0543)" style="fill: none; stroke: #6f6f6f; stroke-linecap: round"/>
   </g>
   <g id="line2d_111">
    <g clip-path="url(#pbb333e0543)">
     <use xlink:href="#me05a3b22c8" x="345.470235" y="31.28946" style="fill-opacity: 0; stroke: #6f6f6f"/>
     <use xlink:href="#me05a3b22c8" x="345.470235" y="31.859467" style="fill-opacity: 0; stroke: #6f6f6f"/>
     <use xlink:href="#me05a3b22c8" x="345.470235" y="35.860904" style="fill-opacity: 0; stroke: #6f6f6f"/>
    </g>
   </g>
   <g id="line2d_112">
    <path d="M 68.056954 284.93129 
L 79.153485 284.93129 
" clip-path="url(#pbb333e0543)" style="fill: none; stroke: #6f6f6f"/>
   </g>
   <g id="line2d_113">
    <path d="M 109.668946 214.195541 
L 120.765477 214.195541 
" clip-path="url(#pbb333e0543)" style="fill: none; stroke: #6f6f6f"/>
   </g>
   <g id="line2d_114">
    <path d="M 151.280938 168.501852 
L 162.377469 168.501852 
" clip-path="url(#pbb333e0543)" style="fill: none; stroke: #6f6f6f"/>
   </g>
   <g id="line2d_115">
    <path d="M 192.89293 296.600491 
L 203.989462 296.600491 
" clip-path="url(#pbb333e0543)" style="fill: none; stroke: #6f6f6f"/>
   </g>
   <g id="line2d_116">
    <path d="M 234.504923 216.362832 
L 245.601454 216.362832 
" clip-path="url(#pbb333e0543)" style="fill: none; stroke: #6f6f6f"/>
   </g>
   <g id="line2d_117">
    <path d="M 276.116915 151.667329 
L 287.213446 151.667329 
" clip-path="url(#pbb333e0543)" style="fill: none; stroke: #6f6f6f"/>
   </g>
   <g id="line2d_118">
    <path d="M 317.728907 284.061178 
L 328.825438 284.061178 
" clip-path="url(#pbb333e0543)" style="fill: none; stroke: #6f6f6f"/>
   </g>
   <g id="line2d_119">
    <path d="M 79.153485 287.257313 
L 90.250016 287.257313 
" clip-path="url(#pbb333e0543)" style="fill: none; stroke: #6f6f6f"/>
   </g>
   <g id="line2d_120">
    <path d="M 120.765477 213.977649 
L 131.862008 213.977649 
" clip-path="url(#pbb333e0543)" style="fill: none; stroke: #6f6f6f"/>
   </g>
   <g id="line2d_121">
    <path d="M 162.377469 164.52976 
L 173.474001 164.52976 
" clip-path="url(#pbb333e0543)" style="fill: none; stroke: #6f6f6f"/>
   </g>
   <g id="line2d_122">
    <path d="M 203.989462 297.966831 
L 215.085993 297.966831 
" clip-path="url(#pbb333e0543)" style="fill: none; stroke: #6f6f6f"/>
   </g>
   <g id="line2d_123">
    <path d="M 245.601454 223.42741 
L 256.697985 223.42741 
" clip-path="url(#pbb333e0543)" style="fill: none; stroke: #6f6f6f"/>
   </g>
   <g id="line2d_124">
    <path d="M 287.213446 138.515108 
L 298.309977 138.515108 
" clip-path="url(#pbb333e0543)" style="fill: none; stroke: #6f6f6f"/>
   </g>
   <g id="line2d_125">
    <path d="M 328.825438 283.124419 
L 339.92197 283.124419 
" clip-path="url(#pbb333e0543)" style="fill: none; stroke: #6f6f6f"/>
   </g>
   <g id="line2d_126">
    <path d="M 90.250016 290.113157 
L 101.346547 290.113157 
" clip-path="url(#pbb333e0543)" style="fill: none; stroke: #6f6f6f"/>
   </g>
   <g id="line2d_127">
    <path d="M 131.862008 214.015833 
L 142.95854 214.015833 
" clip-path="url(#pbb333e0543)" style="fill: none; stroke: #6f6f6f"/>
   </g>
   <g id="line2d_128">
    <path d="M 173.474001 125.223459 
L 184.570532 125.223459 
" clip-path="url(#pbb333e0543)" style="fill: none; stroke: #6f6f6f"/>
   </g>
   <g id="line2d_129">
    <path d="M 215.085993 299.079651 
L 226.182524 299.079651 
" clip-path="url(#pbb333e0543)" style="fill: none; stroke: #6f6f6f"/>
   </g>
   <g id="line2d_130">
    <path d="M 256.697985 221.356506 
L 267.794516 221.356506 
" clip-path="url(#pbb333e0543)" style="fill: none; stroke: #6f6f6f"/>
   </g>
   <g id="line2d_131">
    <path d="M 298.309977 97.438802 
L 309.406509 97.438802 
" clip-path="url(#pbb333e0543)" style="fill: none; stroke: #6f6f6f"/>
   </g>
   <g id="line2d_132">
    <path d="M 339.92197 277.474447 
L 351.018501 277.474447 
" clip-path="url(#pbb333e0543)" style="fill: none; stroke: #6f6f6f"/>
   </g>
   <g id="patch_27">
    <path d="M 63.895754 317.8375 
L 63.895754 10.8 
" style="fill: none; stroke: #ffffff; stroke-width: 0.8; stroke-linejoin: miter; stroke-linecap: square"/>
   </g>
   <g id="patch_28">
    <path d="M 63.895754 317.8375 
L 355.1797 317.8375 
" style="fill: none; stroke: #ffffff; stroke-width: 0.8; stroke-linejoin: miter; stroke-linecap: square"/>
   </g>
  </g>
  <g id="legend_1">
   <g id="text_16">
    <!-- l1_cache_sample_seed -->
    <g style="fill: #262626" transform="translate(359.051875 160.603125) scale(0.1 -0.1)">
     <use xlink:href="#DejaVuSans-6c"/>
     <use xlink:href="#DejaVuSans-31" x="27.783203"/>
     <use xlink:href="#DejaVuSans-5f" x="91.40625"/>
     <use xlink:href="#DejaVuSans-63" x="141.40625"/>
     <use xlink:href="#DejaVuSans-61" x="196.386719"/>
     <use xlink:href="#DejaVuSans-63" x="257.666016"/>
     <use xlink:href="#DejaVuSans-68" x="312.646484"/>
     <use xlink:href="#DejaVuSans-65" x="376.025391"/>
     <use xlink:href="#DejaVuSans-5f" x="437.548828"/>
     <use xlink:href="#DejaVuSans-73" x="487.548828"/>
     <use xlink:href="#DejaVuSans-61" x="539.648438"/>
     <use xlink:href="#DejaVuSans-6d" x="600.927734"/>
     <use xlink:href="#DejaVuSans-70" x="698.339844"/>
     <use xlink:href="#DejaVuSans-6c" x="761.816406"/>
     <use xlink:href="#DejaVuSans-65" x="789.599609"/>
     <use xlink:href="#DejaVuSans-5f" x="851.123047"/>
     <use xlink:href="#DejaVuSans-73" x="901.123047"/>
     <use xlink:href="#DejaVuSans-65" x="953.222656"/>
     <use xlink:href="#DejaVuSans-65" x="1014.746094"/>
     <use xlink:href="#DejaVuSans-64" x="1076.269531"/>
    </g>
   </g>
   <g id="patch_29">
    <path d="M 398.859688 175.559375 
L 418.859688 175.559375 
L 418.859688 168.559375 
L 398.859688 168.559375 
z
" style="fill: #abc9ea; stroke: #6f6f6f; stroke-linejoin: miter"/>
   </g>
   <g id="text_17">
    <!-- 1 -->
    <g style="fill: #262626" transform="translate(426.859688 175.559375) scale(0.1 -0.1)">
     <use xlink:href="#DejaVuSans-31"/>
    </g>
   </g>
   <g id="patch_30">
    <path d="M 398.859688 190.2375 
L 418.859688 190.2375 
L 418.859688 183.2375 
L 398.859688 183.2375 
z
" style="fill: #efb792; stroke: #6f6f6f; stroke-linejoin: miter"/>
   </g>
   <g id="text_18">
    <!-- 2 -->
    <g style="fill: #262626" transform="translate(426.859688 190.2375) scale(0.1 -0.1)">
     <use xlink:href="#DejaVuSans-32"/>
    </g>
   </g>
   <g id="patch_31">
    <path d="M 398.859688 204.915625 
L 418.859688 204.915625 
L 418.859688 197.915625 
L 398.859688 197.915625 
z
" style="fill: #98daa7; stroke: #6f6f6f; stroke-linejoin: miter"/>
   </g>
   <g id="text_19">
    <!-- 4 -->
    <g style="fill: #262626" transform="translate(426.859688 204.915625) scale(0.1 -0.1)">
     <use xlink:href="#DejaVuSans-34"/>
    </g>
   </g>
  </g>
 </g>
 <defs>
  <clipPath id="pbb333e0543">
   <rect x="63.895754" y="10.8" width="291.283946" height="307.0375"/>
  </clipPath>
 </defs>
</svg>
